<?xml version="1.0" encoding="UTF-8" standalone="no"?>
<!-- Created with Inkscape (http://www.inkscape.org/) -->

<svg
   width="261.68845mm"
   height="261.70703mm"
   viewBox="0 0 261.68845 261.70704"
   version="1.1"
   id="svg5"
   sodipodi:docname="language_icon_static.svg"
   inkscape:version="1.1 (c68e22c387, 2021-05-23)"
   xmlns:inkscape="http://www.inkscape.org/namespaces/inkscape"
   xmlns:sodipodi="http://sodipodi.sourceforge.net/DTD/sodipodi-0.dtd"
   xmlns="http://www.w3.org/2000/svg"
   xmlns:svg="http://www.w3.org/2000/svg">
  <sodipodi:namedview
     id="namedview7"
     pagecolor="#ffffff"
     bordercolor="#666666"
     borderopacity="1.0"
     inkscape:pageshadow="2"
     inkscape:pageopacity="0.0"
     inkscape:pagecheckerboard="0"
     inkscape:document-units="mm"
     showgrid="false"
     inkscape:snap-global="false"
     fit-margin-top="0"
     fit-margin-left="0"
     fit-margin-right="0"
     fit-margin-bottom="0"
     inkscape:zoom="0.125"
     inkscape:cx="-1044"
     inkscape:cy="1404"
     inkscape:window-width="1920"
     inkscape:window-height="1057"
     inkscape:window-x="3832"
     inkscape:window-y="462"
     inkscape:window-maximized="1"
     inkscape:current-layer="layer1" />
  <defs
     id="defs2" />
  <g
     inkscape:label="Layer 1"
     inkscape:groupmode="layer"
     id="layer1"
     transform="translate(11.255882,113.86576)">
    <path
       style="fill:#000000;stroke-width:0.0766726"
       d="M 116.10068,147.77845 C 95.304367,147.26093 74.884878,141.76492 56.717677,131.79524 40.3017,122.78658 25.974011,110.34426 14.78031,95.376413 -0.11959102,75.452793 -8.962719,51.935152 -10.864503,27.176041 -11.645185,17.012053 -11.256499,6.7638257 -9.711467,-3.2246799 -5.475395,-30.610302 7.3710128,-55.895466 27.043154,-75.567584 c 13.000401,-13.000425 28.485813,-23.073885 45.564692,-29.640476 19.340132,-7.43599 40.367404,-10.14305 61.242584,-7.88436 12.83127,1.38835 25.47669,4.70653 37.30127,9.78792 17.97095,7.722708 34.03873,19.418043 46.95807,34.179635 15.13708,17.295561 25.4588,38.284919 29.86659,60.7341172 3.23736,16.4881025 3.27501,33.6691228 0.10998,50.1729488 -3.98484,20.778658 -13.01961,40.326245 -26.29471,56.891146 -6.11942,7.635913 -12.87295,14.387183 -20.50771,20.500863 -19.41476,15.54672 -42.78829,25.20877 -67.43349,27.87537 -3.88967,0.42086 -7.0106,0.62384 -11.24229,0.73119 -3.19462,0.081 -3.15722,0.081 -6.50746,-0.002 z m 5.22651,-29.15103 c 3.32721,-5.00167 5.89952,-9.25907 8.7208,-14.43364 1.25323,-2.29858 3.85663,-7.454853 4.98209,-9.867484 3.57559,-7.664917 6.66729,-15.662265 9.12357,-23.600156 l 0.4152,-1.341772 -12.48977,-0.0194 c -6.86938,-0.01062 -18.11034,-0.01062 -24.9799,0 l -12.490094,0.0194 0.188767,0.61338 c 4.883657,15.869611 11.556977,30.455182 20.363947,44.508512 1.00934,1.61061 4.36766,6.67053 4.4273,6.67053 0.0233,0 0.80534,-1.14722 1.73809,-2.54937 z M 85.008597,114.79379 C 77.950266,101.454 72.098923,86.335582 67.945413,70.706975 L 67.583734,69.346031 H 48.303081 c -17.382848,0 -19.276166,0.0117 -19.235043,0.118835 0.08204,0.213804 1.664852,2.801703 2.598742,4.248972 2.418358,3.747761 5.502294,7.879451 8.414566,11.27343 3.475617,4.050484 8.029612,8.575471 12.047385,11.970649 7.936445,6.706603 16.763618,12.149723 26.402328,16.280483 1.939252,0.83109 6.688564,2.66407 7.036712,2.7158 0.03271,0.005 -0.218907,-0.51732 -0.559174,-1.16041 z m 70.463533,0.42366 c 20.9402,-7.66433 38.87458,-21.803371 51.36713,-40.496627 1.08437,-1.622598 3.30051,-5.201888 3.30051,-5.330668 0,-0.02424 -8.67261,-0.0441 -19.27245,-0.0441 h -19.27245 l -0.36299,1.360944 c -3.39346,12.723016 -7.79785,24.842596 -13.17257,36.247021 -0.74938,1.59009 -3.0734,6.2306 -3.92944,7.84618 -0.51111,0.9646 -0.56075,1.09248 -0.40592,1.04577 0.097,-0.0292 0.88369,-0.31209 1.74818,-0.6285 z M 62.513889,42.913117 C 62.451089,42.60556 61.964729,38.39989 61.744775,36.261766 60.586498,25.001982 60.415179,14.661141 61.205482,3.7142004 61.454413,0.26615297 62.205802,-7.3848633 62.442234,-8.8792897 l 0.04549,-0.2875297 H 40.399154 18.31058 L 18.235,-8.8792897 c -1.611907,6.1360246 -2.670067,12.8034227 -3.166844,19.9540677 -0.133128,1.916285 -0.133128,9.891313 0,11.807598 0.496777,7.150645 1.554937,13.818043 3.166844,19.954067 l 0.07558,0.287522 h 22.123201 22.123202 z m 87.805201,-0.498371 c 0.0504,-0.390071 0.17932,-1.347521 0.28638,-2.127664 0.92555,-6.744834 1.46175,-13.180356 1.65135,-19.8199 0.22516,-7.88477 -0.3607,-17.391638 -1.65135,-26.7971104 -0.10706,-0.7801431 -0.23593,-1.7375929 -0.28638,-2.1276644 l -0.0917,-0.7092266 -30.6344,3.85e-5 -30.634417,3.85e-5 -0.25649,1.8592761 c -1.261465,9.1438495 -1.802236,16.431147 -1.802236,24.2860393 0,7.854899 0.540771,15.142197 1.802236,24.286047 l 0.25649,1.859268 30.634417,3.9e-5 30.6344,3.8e-5 z m 70.68319,-0.01916 c 1.79892,-7.039452 2.81102,-13.711814 3.16922,-20.893315 0.0964,-1.933002 0.0959,-7.052875 -7.7e-4,-8.970707 -0.27237,-5.3963963 -0.92119,-10.4876995 -2.03235,-15.9479239 -0.3329,-1.6358052 -1.24206,-5.5698239 -1.31567,-5.6929465 -0.0189,-0.031633 -9.97187,-0.057494 -22.11769,-0.057494 h -22.08339 l 0.0425,0.2108484 c 0.0743,0.3685057 0.57355,4.7268997 0.81024,7.0730553 1.18528,11.7491044 1.29411,22.3785677 0.34465,33.6593177 -0.28402,3.37456 -0.97075,9.9938 -1.15142,11.098501 l -0.0408,0.249317 22.09958,-0.01932 22.09956,-0.01932 0.17635,-0.690055 z M 67.945413,-36.749821 c 4.155627,-15.636594 10.001551,-30.739608 17.069072,-44.098025 0.446934,-0.844779 0.584149,-1.164696 0.482493,-1.124966 -0.07813,0.03056 -0.663902,0.24155 -1.301696,0.468923 -11.525825,4.108947 -22.631154,10.516554 -32.066551,18.501911 -3.019662,2.555595 -7.609131,6.982066 -10.027835,9.67169 -3.995376,4.442841 -7.489272,8.99414 -10.516646,13.69939 -0.890574,1.384157 -2.438492,3.920665 -2.516212,4.123185 -0.0411,0.107129 1.852195,0.118836 19.235043,0.118836 h 19.280653 z m 76.602997,1.265098 c -0.0172,-0.05272 -0.2256,-0.73414 -0.46296,-1.514284 -4.78319,-15.719909 -12.22413,-31.590536 -21.40707,-45.658595 -1.25989,-1.930108 -3.04103,-4.558498 -3.08909,-4.558498 -0.0481,0 -1.82941,2.628713 -3.08906,4.558498 -8.30169,12.718236 -15.00733,26.520601 -19.872894,40.904889 -0.575198,1.700456 -1.54123,4.721011 -1.906541,5.961304 l -0.118551,0.402532 h 24.988766 c 19.95665,0 24.98246,-0.01932 24.9574,-0.09585 z m 65.14014,-0.651717 c -3.68352,-6.20424 -7.73194,-11.689923 -12.68902,-17.193848 -1.35071,-1.499722 -5.46327,-5.611878 -7.02469,-7.02399 -9.42135,-8.520532 -19.79935,-15.030342 -31.39747,-19.694715 -1.50641,-0.605822 -4.32817,-1.658579 -4.94163,-1.843636 -0.18257,-0.05511 -0.18454,-0.05149 -0.0694,0.125878 0.55927,0.861488 3.69919,7.148012 5.24195,10.495049 5.02322,10.897983 9.50512,23.469653 12.49866,35.058588 l 0.21291,0.824237 h 19.30626 19.30627 z"
       id="path391" />
  </g>
</svg>
